<?xml version="1.0" encoding="utf-8"?>
<!-- Generator: Adobe Illustrator 18.0.0, SVG Export Plug-In . SVG Version: 6.00 Build 0)  -->
<!DOCTYPE svg PUBLIC "-//W3C//DTD SVG 1.1//EN" "http://www.w3.org/Graphics/SVG/1.1/DTD/svg11.dtd">
<svg version="1.1" id="Vrstva_1" xmlns="http://www.w3.org/2000/svg" xmlns:xlink="http://www.w3.org/1999/xlink" x="0px" y="0px"
	 width="154.1px" height="160.2px" viewBox="0 0 154.1 160.2" enable-background="new 0 0 154.1 160.2" xml:space="preserve">
<g>
	<path fill="#FFFFFF" d="M1.7,55.9C29.2,51,41.9-6.8,80.3,0.7c1,0.2,31.9,55.3,31.9,55.3S-16.1,59.1,1.7,55.9z"/>
	<path fill="#FFFFFF" d="M152.4,55.9C124.9,51,112.2-6.8,73.7,0.7c-1,0.2-31.9,55.3-31.9,55.3S170.2,59.1,152.4,55.9z"/>
</g>
<g>
	<circle cx="77.6" cy="59.2" r="4.9"/>
	<path fill="none" stroke="#000000" stroke-width="4" stroke-miterlimit="10" d="M77,120L77,120c-12.7,0-23-10.3-23-23V60.8
		c0-12.7,10.3-23,23-23h0c12.7,0,23,10.3,23,23V97C100,109.7,89.7,120,77,120z"/>
</g>
<g>
	<path d="M86.9,134.4l-2.3-2.3l-7.6,7.6l-7.6-7.6l-2.3,2.3l9.9,9.9L86.9,134.4z M86.9,134.4"/>
</g>
<g>
	<path d="M86.9,150.4l-2.3-2.3l-7.6,7.6l-7.6-7.6l-2.3,2.3l9.9,9.9L86.9,150.4z M86.9,150.4"/>
</g>
</svg>
