<?xml version="1.0" encoding="iso-8859-1"?>
<!DOCTYPE svg PUBLIC "-//W3C//DTD SVG 1.1//EN" "http://www.w3.org/Graphics/SVG/1.1/DTD/svg11.dtd">
<svg version="1.1" id="Layer_1" xmlns="http://www.w3.org/2000/svg" xmlns:xlink="http://www.w3.org/1999/xlink" x="0px" y="0px"
	 width="512px" height="512px" viewBox="-49 141 512 512" style="enable-background:new -49 141 512 512;" xml:space="preserve">
<path fill="#fff" d="M462.861,397c0-68.342-26.614-132.595-74.94-180.921c-47.508-47.508-110.41-74.013-177.457-74.898
	c-1.168-0.106-2.327-0.18-3.465-0.18s-2.296,0.074-3.465,0.18c-67.047,0.884-129.949,27.39-177.457,74.897
	C-22.247,264.405-48.861,328.657-48.861,397s26.614,132.595,74.94,180.921c47.508,47.508,110.41,74.013,177.457,74.898
	c1.168,0.107,2.327,0.18,3.465,0.18s2.296-0.074,3.465-0.18c67.047-0.885,129.949-27.39,177.457-74.898
	C436.247,529.595,462.861,465.343,462.861,397z M-17.929,412.208h89.627c1.191,31.071,6.011,61.457,14.161,89.978H7.488
	C-7.135,474.534-15.824,444.012-17.929,412.208z M431.928,381.791H342.3c-1.191-31.071-6.011-61.457-14.161-89.978h78.373
	C421.135,319.466,429.823,349.987,431.928,381.791z M311.862,381.791h-89.654v-89.978h74.195
	C305.292,319.994,310.567,350.465,311.862,381.791z M222.208,261.395v-83.718c12.671,8.29,29.685,24.946,45.605,50.764
	c6.385,10.354,12.124,21.382,17.197,32.954H222.208z M191.791,177.677v83.718h-62.801c5.073-11.572,10.812-22.6,17.197-32.954
	C162.106,202.623,179.12,185.967,191.791,177.677z M191.791,291.813v89.978h-89.654c1.295-31.327,6.57-61.797,15.459-89.978H191.791
	z M71.699,381.791h-89.627c2.105-31.804,10.794-62.326,25.416-89.978H85.86C77.71,320.335,72.89,350.721,71.699,381.791z
	 M102.137,412.208h89.654v89.978h-74.195C108.708,474.005,103.433,443.535,102.137,412.208z M191.791,532.604v83.718
	c-12.671-8.29-29.685-24.946-45.605-50.764c-6.385-10.354-12.124-21.382-17.197-32.954H191.791z M222.208,616.322v-83.718h62.801
	c-5.073,11.572-10.812,22.6-17.197,32.954C251.893,591.377,234.88,608.032,222.208,616.322z M222.208,502.186v-89.978h89.654
	c-1.295,31.327-6.57,61.797-15.459,89.978H222.208z M342.3,412.208h89.627c-2.105,31.804-10.794,62.326-25.416,89.978h-78.373
	C336.289,473.665,341.11,443.279,342.3,412.208z M387.134,261.395H317.9c-6.771-17.357-14.856-33.773-24.196-48.919
	c-7.322-11.875-15.188-22.591-23.282-31.908c35.906,10.467,68.81,29.837,95.992,57.018
	C373.928,245.102,380.834,253.063,387.134,261.395z M143.579,180.569c-8.093,9.317-15.96,20.033-23.282,31.908
	c-9.339,15.146-17.425,31.562-24.196,48.919H26.866c6.299-8.332,13.206-16.293,20.721-23.809
	C74.768,210.406,107.673,191.035,143.579,180.569z M26.866,532.604h69.236c6.771,17.357,14.856,33.773,24.196,48.919
	c7.322,11.875,15.189,22.591,23.282,31.908c-35.906-10.467-68.81-29.837-95.992-57.018
	C40.071,548.897,33.165,540.937,26.866,532.604z M270.421,613.431c8.093-9.317,15.96-20.033,23.282-31.908
	c9.339-15.146,17.425-31.562,24.196-48.919h69.235c-6.299,8.332-13.206,16.294-20.721,23.809
	C339.231,583.594,306.327,602.964,270.421,613.431z"/>
</svg>
