<?xml version="1.0" encoding="UTF-8" standalone="no"?><!DOCTYPE svg PUBLIC "-//W3C//DTD SVG 1.1//EN" "http://www.w3.org/Graphics/SVG/1.1/DTD/svg11.dtd"><svg width="100%" height="100%" viewBox="0 0 143 42" version="1.1" xmlns="http://www.w3.org/2000/svg" xmlns:xlink="http://www.w3.org/1999/xlink" xml:space="preserve" xmlns:serif="http://www.serif.com/" style="fill-rule:evenodd;clip-rule:evenodd;stroke-linejoin:round;stroke-miterlimit:1.41421;"><rect id="Artboard1" x="0" y="0" width="142.752" height="41.955" style="fill:none;"/><clipPath id="_clip1"><rect id="Artboard11" serif:id="Artboard1" x="0" y="0" width="142.752" height="41.955"/></clipPath><g clip-path="url(#_clip1)"><g id="logo"><g><path d="M88.748,18.102l-1.643,-1.406l3.606,-3.087l-1.913,-4.344l4.591,-1.21l0.161,-4.745l4.662,0.894l2.205,-4.204l3.809,2.836l3.81,-2.836l2.205,4.204l4.662,-0.894l0.161,4.745l4.591,1.21l-1.913,4.344l3.606,3.087l-2.971,2.543l-1.295,-0.701l-1.526,-0.481l0.085,-1.361c0,-4.291 -2.368,-8.029 -5.904,-9.938c-0.979,-0.582 -2.063,-1.003 -3.21,-1.245l-2.301,-0.231c-0.79,0 -1.562,0.08 -2.3,0.231l-2.142,0.666c-0.686,0.289 -1.337,0.644 -1.939,1.052l-1.69,1.394c-2.065,2.065 -3.343,4.919 -3.343,8.071l0.097,1.302l-3.535,0l-0.626,0.104Z" style="fill:#ffc93c;"/><path d="M106.527,5.513c1.144,0.235 2.225,0.641 3.21,1.245c3.536,1.909 5.904,5.647 5.904,9.938l-0.085,1.361c-2.854,-0.777 -6.037,-0.467 -8.707,0.86c-0.294,0.146 -0.378,0.177 -0.901,0.503c-1.697,-1.182 -3.776,-1.715 -5.857,-1.75c-1.349,-0.008 -2.688,0.178 -3.975,0.563c-0.933,0.289 -1.307,-0.201 -2.386,-0.235l-0.821,0l-0.097,-1.302c0,-3.152 1.278,-6.006 3.343,-8.071l1.69,-1.394c0.608,-0.411 1.258,-0.765 1.939,-1.052l2.142,-0.666c0.738,-0.151 1.51,-0.231 2.3,-0.231l2.301,0.231Z" style="fill:#ff9a3c;"/></g><g><path d="M6.944,41.955c-1.314,0 -2.513,-0.124 -3.595,-0.37c-1.082,-0.247 -2.198,-0.63 -3.349,-1.151l0.452,-4.355c1.151,0.684 2.226,1.198 3.226,1.54c1,0.343 2.034,0.514 3.102,0.514c2.082,0 3.123,-0.685 3.123,-2.054c0,-0.74 -0.274,-1.309 -0.822,-1.706c-0.548,-0.397 -1.534,-0.87 -2.958,-1.417c-2.028,-0.74 -3.521,-1.582 -4.479,-2.528c-0.959,-0.945 -1.439,-2.225 -1.439,-3.842c0,-1.78 0.685,-3.225 2.055,-4.335c1.37,-1.109 3.219,-1.664 5.547,-1.664c2.329,0 4.452,0.534 6.37,1.603l-0.452,4.355c-1.041,-0.712 -2.021,-1.26 -2.938,-1.643c-0.918,-0.384 -1.884,-0.576 -2.897,-0.576c-0.877,0 -1.555,0.178 -2.034,0.535c-0.48,0.356 -0.72,0.862 -0.72,1.52c0,0.52 0.144,0.945 0.432,1.274c0.288,0.328 0.692,0.623 1.212,0.883c0.521,0.26 1.384,0.623 2.589,1.089c2,0.767 3.438,1.61 4.314,2.527c0.877,0.918 1.315,2.144 1.315,3.678c0,1.945 -0.698,3.452 -2.095,4.52c-1.397,1.068 -3.383,1.603 -5.959,1.603Z" style="fill:#ff9a3c;fill-rule:nonzero;"/><path d="M36.407,20.998l0,20.546l-4.767,0l-0.082,-1.233c-0.63,0.466 -1.356,0.856 -2.178,1.171c-0.821,0.315 -1.616,0.473 -2.383,0.473c-3.041,0 -5.253,-0.877 -6.636,-2.63c-1.384,-1.753 -2.075,-4.178 -2.075,-7.273l0,-11.054l5.095,0l0,11.054c0,1.917 0.322,3.335 0.966,4.253c0.644,0.917 1.678,1.376 3.102,1.376c1.589,0 2.877,-0.575 3.863,-1.726l0,-14.957l5.095,0Z" style="fill:#ff9a3c;fill-rule:nonzero;"/><path d="M51.529,20.669c2.547,0 4.479,0.849 5.794,2.548c1.315,1.698 1.972,3.986 1.972,6.862l0,11.465l-5.095,0l0,-11.054c0,-1.918 -0.322,-3.335 -0.966,-4.253c-0.644,-0.918 -1.678,-1.376 -3.102,-1.376c-1.562,0 -2.849,0.589 -3.863,1.766l0,14.917l-5.095,0l0,-20.546l4.766,0l0.083,1.438c1.725,-1.178 3.561,-1.767 5.506,-1.767Z" style="fill:#ff9a3c;fill-rule:nonzero;"/><path d="M84.854,30.696l0,4.273l-3.698,0l0,6.575l-5.054,0l0,-6.575l-14.341,0l15.82,-22.189l3.575,0l0,17.916l3.698,0Zm-8.752,0l0,-8.835l-6.205,8.835l6.205,0Z" style="fill:#ff9a3c;fill-rule:nonzero;"/><path d="M112.426,20.669c2.74,0 4.774,0.829 6.103,2.486c1.328,1.658 1.992,3.979 1.992,6.965l0,11.424l-5.095,0l0,-11.054c0,-1.945 -0.301,-3.369 -0.904,-4.273c-0.603,-0.904 -1.589,-1.356 -2.958,-1.356c-1.343,0 -2.356,0.458 -3.041,1.376c-0.685,0.918 -1.028,2.212 -1.028,3.883l0,11.424l-5.095,0l0,-11.054c0,-1.945 -0.315,-3.369 -0.945,-4.273c-0.63,-0.904 -1.63,-1.356 -3,-1.356c-1.616,0 -2.945,0.589 -3.986,1.766l0,14.917l-5.095,0l0,-20.546l4.356,0l0.164,1.644c1.863,-1.315 3.876,-1.973 6.041,-1.973c2.629,0 4.588,0.945 5.876,2.836c0.712,-0.905 1.643,-1.603 2.794,-2.096c1.15,-0.493 2.424,-0.74 3.821,-0.74Z" style="fill:#ff9a3c;fill-rule:nonzero;"/><path d="M134.986,41.955c-2.384,0 -4.418,-0.487 -6.102,-1.459c-1.685,-0.973 -2.945,-2.274 -3.781,-3.904c-0.835,-1.63 -1.253,-3.445 -1.253,-5.444c0,-1.918 0.397,-3.671 1.192,-5.26c0.794,-1.589 1.945,-2.856 3.451,-3.801c1.507,-0.945 3.301,-1.418 5.383,-1.418c1.918,0 3.541,0.397 4.87,1.192c1.328,0.794 2.328,1.863 2.999,3.205c0.671,1.342 1.007,2.849 1.007,4.52c0,0.822 -0.11,1.753 -0.329,2.794l-13.272,0c0.274,1.808 0.986,3.157 2.136,4.048c1.151,0.89 2.534,1.335 4.151,1.335c2.219,0 4.273,-0.561 6.163,-1.684l0.247,4.314c-0.877,0.466 -1.897,0.842 -3.061,1.13c-1.165,0.288 -2.432,0.432 -3.801,0.432Zm2.588,-13.026c0,-1.069 -0.301,-2.014 -0.904,-2.836c-0.602,-0.822 -1.534,-1.232 -2.794,-1.232c-1.26,0 -2.274,0.369 -3.041,1.109c-0.767,0.74 -1.287,1.726 -1.561,2.959l8.3,0Z" style="fill:#ff9a3c;fill-rule:nonzero;"/></g></g></g></svg>