<?xml version="1.0" encoding="iso-8859-1"?>

<!DOCTYPE svg PUBLIC "-//W3C//DTD SVG 1.1//EN" "http://www.w3.org/Graphics/SVG/1.1/DTD/svg11.dtd">
<svg xmlns="http://www.w3.org/2000/svg" xmlns:xlink="http://www.w3.org/1999/xlink" x="0px" y="0px"
	 width="392.001px" height="392.001px" viewBox="0 0 392.001 392.001" style="enable-background:new 0 0 392.001 392.001;"
	 xml:space="preserve">

		<path style=" fill:#ffffff;" d="M387.199,364.16l-94.238-94.238c23.359-28.481,37.437-64.961,37.437-104.723
			C330.398,74,256.398,0,165.199,0C73.922,0,0,74,0,165.199s73.922,165.199,165.199,165.199c39.762,0,76.16-14,104.641-37.359
			l94.238,94.16c6.402,6.403,16.723,6.403,23.121,0C393.602,380.879,393.602,370.48,387.199,364.16L387.199,364.16z M165.199,297.52
			c-73.039,0-132.398-59.36-132.398-132.321S92.16,32.801,165.199,32.801c72.961,0,132.403,59.437,132.403,132.398
			S238.16,297.52,165.199,297.52L165.199,297.52z M165.199,297.52"/>

</svg>
