<?xml version="1.0" encoding="UTF-8" standalone="no"?><!DOCTYPE svg PUBLIC "-//W3C//DTD SVG 1.1//EN" "http://www.w3.org/Graphics/SVG/1.1/DTD/svg11.dtd"><svg width="100%" height="100%" viewBox="0 0 512 324" version="1.1" xmlns="http://www.w3.org/2000/svg" xmlns:xlink="http://www.w3.org/1999/xlink" xml:space="preserve" xmlns:serif="http://www.serif.com/" style="fill-rule:evenodd;clip-rule:evenodd;stroke-linejoin:round;stroke-miterlimit:1.41421;"><g><path d="M486.881,205.353c-5.01,0 -9.086,-4.076 -9.086,-9.086l0,-9.086l18.172,0l0,18.172l-9.086,0Zm-59.858,102.613c-19.155,0 -34.739,-15.583 -34.739,-34.739c0,-19.155 15.584,-34.739 34.739,-34.739c19.155,0 34.739,15.584 34.739,34.739c0,19.156 -15.584,34.739 -34.739,34.739Zm-282.188,0c-19.154,0 -34.739,-15.583 -34.739,-34.739c0,-19.155 15.585,-34.739 34.739,-34.739c19.155,0 34.739,15.584 34.739,34.739c0,19.156 -15.584,34.739 -34.739,34.739Zm290.739,-257.603c9.725,0 17.637,7.912 17.637,17.637l0,0.535l-78.029,0l0,-18.172l60.392,0Zm-60.392,34.205l71.235,0l13.094,52.375l-84.329,0l0,-52.375Zm100.976,52.857l-13.259,-53.034c3.625,-0.77 6.345,-3.986 6.345,-7.84l0,-8.551c0,-18.565 -15.104,-33.67 -33.67,-33.67l-60.392,0l0,-17.637c0,-9.135 -7.432,-16.568 -16.568,-16.568l-307.842,0c-9.136,0 -16.568,7.433 -16.568,16.568l0,145.369c0,4.428 3.589,8.017 8.017,8.017c4.427,0 8.017,-3.589 8.017,-8.017l0,-145.369c0,-0.295 0.239,-0.534 0.534,-0.534l307.842,0c0.295,0 0.534,0.239 0.534,0.534l0,145.372c0,4.427 3.59,8.016 8.017,8.016c4.427,0 8.017,-3.589 8.017,-8.016l0,-9.088l94.569,0c0.007,0 0.014,0.002 0.021,0.002c0.008,0 0.015,-0.001 0.023,-0.001c11.637,0.007 21.518,7.646 24.911,18.171l-24.927,0c-4.428,0 -8.017,3.589 -8.017,8.017l0,17.102c0,13.851 11.268,25.119 25.119,25.119l9.086,0l0,35.273l-20.962,0c-6.886,-19.882 -25.788,-34.204 -47.982,-34.204c-22.195,0 -41.097,14.322 -47.982,34.204l-3.859,0l0,-60.392c0,-4.427 -3.59,-8.017 -8.017,-8.017c-4.427,0 -8.017,3.59 -8.017,8.017l0,60.391l-166.331,0c-6.886,-19.882 -25.787,-34.204 -47.982,-34.204c-22.194,0 -41.097,14.322 -47.982,34.204l-46.081,0c-0.295,0 -0.534,-0.238 -0.534,-0.534l0,-17.637l34.739,0c4.427,0 8.016,-3.589 8.016,-8.016c0,-4.428 -3.589,-8.017 -8.016,-8.017l-76.961,0c-4.427,0 -8.016,3.589 -8.016,8.017c0,4.427 3.589,8.016 8.016,8.016l26.188,0l0,17.637c0,9.136 7.432,16.568 16.568,16.568l43.304,0c-0.002,0.178 -0.014,0.355 -0.014,0.534c0,27.997 22.778,50.773 50.773,50.773c27.995,0 50.773,-22.776 50.773,-50.773c0,-0.179 -0.012,-0.356 -0.014,-0.534l180.669,0c-0.002,0.178 -0.014,0.355 -0.014,0.534c0,27.997 22.777,50.773 50.773,50.773c27.995,0 50.772,-22.776 50.772,-50.773c0,-0.179 -0.011,-0.356 -0.014,-0.534l26.203,0c4.428,0 8.017,-3.589 8.017,-8.017l0,-85.511c0,-21.113 -15.577,-38.655 -35.842,-41.74Z" style="fill:#0a9100;fill-rule:nonzero;"/><path d="M144.835,256.659c-9.136,0 -16.568,7.432 -16.568,16.568c0,9.136 7.432,16.568 16.568,16.568c9.136,0 16.568,-7.432 16.568,-16.568c0,-9.136 -7.432,-16.568 -16.568,-16.568Z" style="fill:#0a9100;fill-rule:nonzero;"/><path d="M427.023,256.659c-9.136,0 -16.568,7.432 -16.568,16.568c0,9.136 7.432,16.568 16.568,16.568c9.136,0 16.568,-7.432 16.568,-16.568c0,-9.136 -7.432,-16.568 -16.568,-16.568Z" style="fill:#0a9100;fill-rule:nonzero;"/><path d="M205.228,230.472c0,4.427 3.589,8.016 8.016,8.016l119.716,0c4.428,0 8.017,-3.589 8.017,-8.016c0,-4.428 -3.589,-8.017 -8.017,-8.017l-119.716,0c-4.427,0 -8.016,3.589 -8.016,8.017Z" style="fill:#0a9100;fill-rule:nonzero;"/><path d="M25.119,204.284l102.614,0c4.427,0 8.016,-3.59 8.016,-8.017c0,-4.427 -3.589,-8.017 -8.016,-8.017l-102.614,0c-4.428,0 -8.017,3.59 -8.017,8.017c0,4.427 3.589,8.017 8.017,8.017Z" style="fill:#0a9100;fill-rule:nonzero;"/><path d="M267.434,79.434l-71.292,71.291l-37.087,-37.088c-3.131,-3.131 -8.207,-3.131 -11.337,0c-3.131,3.131 -3.131,8.206 0,11.337l42.756,42.756c1.564,1.566 3.617,2.348 5.668,2.348c2.051,0 4.103,-0.782 5.668,-2.348l76.961,-76.96c3.13,-3.131 3.13,-8.206 0,-11.337c-3.13,-3.13 -8.207,-3.13 -11.337,0.001Z" style="fill:#0a9100;fill-rule:nonzero;"/></g></svg>