<?xml version="1.0" encoding="UTF-8" standalone="no"?><!DOCTYPE svg PUBLIC "-//W3C//DTD SVG 1.1//EN" "http://www.w3.org/Graphics/SVG/1.1/DTD/svg11.dtd"><svg width="100%" height="100%" viewBox="0 0 512 512" version="1.1" xmlns="http://www.w3.org/2000/svg" xmlns:xlink="http://www.w3.org/1999/xlink" xml:space="preserve" xmlns:serif="http://www.serif.com/" style="fill-rule:evenodd;clip-rule:evenodd;stroke-linejoin:round;stroke-miterlimit:1.41421;"><rect id="Artboard1" x="0" y="0" width="512" height="512" style="fill:none;"/><g><path d="M356,248c-22.06,0 -40,-17.944 -40,-40c0,-15.964 8,-30.348 24,-36.66l0,36.66c0,8.824 7.18,16 16,16c8.82,0 16,-7.176 16,-16l0,-36.636c16,6.312 24,20.804 24,36.636c0,22.056 -17.94,40 -40,40Zm-200,0c-22.06,0 -40,-17.944 -40,-40c0,-15.964 8,-30.348 24,-36.66l0,36.66c0,8.824 7.18,16 16,16c8.82,0 16,-7.176 16,-16l0,-36.636c16,6.312 24,20.804 24,36.636c0,22.056 -17.94,40 -40,40Zm100,-216c46.32,0 84,37.684 84,84l0,20l-168,0l0,-20c0,-46.316 37.68,-84 84,-84Zm191.988,107.696c-0.156,-2.084 -1.9,-3.696 -3.988,-3.696l-72,0l0,-20c0,-63.964 -52.04,-116 -116,-116c-63.96,0 -116,52.036 -116,116l0,20l-72,0c-2.088,0 -3.832,1.612 -3.988,3.696l-28,368c-0.083,1.108 0.296,2.204 1.056,3.02c0.756,0.82 1.82,1.284 2.932,1.284l432,0c1.112,0 2.176,-0.464 2.932,-1.28c0.757,-0.816 1.141,-1.912 1.056,-3.02l-28,-368.004Z" style="fill:#fff;fill-rule:nonzero;"/></g></svg>