<?xml version="1.0" encoding="UTF-8" standalone="no"?><!DOCTYPE svg PUBLIC "-//W3C//DTD SVG 1.1//EN" "http://www.w3.org/Graphics/SVG/1.1/DTD/svg11.dtd"><svg width="100%" height="100%" viewBox="0 0 359 347" version="1.1" xmlns="http://www.w3.org/2000/svg" xmlns:xlink="http://www.w3.org/1999/xlink" xml:space="preserve" xmlns:serif="http://www.serif.com/" style="fill-rule:evenodd;clip-rule:evenodd;stroke-linejoin:round;stroke-miterlimit:1.41421;"><g><path d="M223.531,243.095c-8.843,-1.406 -9.047,-25.726 -9.047,-25.726c0,0 25.989,-25.727 31.653,-60.321c15.234,0 24.644,-36.777 9.406,-49.718c0.637,-13.621 19.586,-106.93 -76.344,-106.93c-95.929,0 -76.98,93.309 -76.344,106.93c-15.238,12.941 -5.828,49.718 9.407,49.718c5.664,34.594 31.652,60.321 31.652,60.321c0,0 -0.203,24.32 -9.047,25.726c-28.488,4.532 -134.867,51.453 -134.867,102.907l358.398,0c0,-51.454 -106.378,-98.375 -134.867,-102.907Z" style="fill-rule:nonzero;"/></g></svg>